<svg width="800" height="800" viewBox="0 0 800 800" fill="none" xmlns="http://www.w3.org/2000/svg">
<g clip-path="url(#clip0_2602_2)">
<rect width="800" height="800" fill="white"/>
<g clip-path="url(#clip1_2602_2)">
<path d="M667 529C667 667.623 559.996 780 428 780C296.004 780 180.5 708 174 539C174 400.377 324.504 277.5 456.5 277.5C588.496 277.5 667 390.377 667 529Z" fill="#EF8829"/>
<path d="M506.074 265.81C528.92 235.618 581.247 172.718 637.409 147.498C645.793 143.732 650.96 135.295 648.14 126.545C645.317 117.792 635.932 112.989 627.186 115.813C605.992 122.651 585.754 134.673 567.2 149.018C560.723 123.176 546.812 85.6543 517.427 56.2676C490.951 29.7918 460.571 15.6717 439.744 8.48666C409.689 -1.88144 390.061 -2.75357 381.4 5.89685C381.4 5.89685 379.206 7.77834 377.69 11.5546C373.52 21.9338 375.441 39.5157 383.968 64.2363C391.15 85.0632 405.271 115.448 431.746 141.922C460.212 170.388 496.315 184.331 522.036 191.066C498.997 216.148 481.601 240.687 472.502 254.357C449.381 248.095 425.079 244.733 399.998 244.733C246.911 244.733 122.368 369.276 122.368 522.365C122.368 675.454 246.913 800 399.998 800C553.089 800 677.63 675.454 677.63 522.365C677.633 406.827 606.685 307.561 506.074 265.81ZM493.884 79.8083C518.919 104.843 530.443 138.393 535.571 160.064C513.885 154.939 480.331 143.416 455.292 118.374C426.626 89.7116 414.224 53.8682 410.258 34.77C429.349 38.7321 465.21 51.1345 493.884 79.8083ZM155.661 522.365C155.661 387.638 265.272 278.026 399.998 278.026C408.017 278.026 415.948 278.427 423.778 279.186C414.609 286.927 409.87 293.88 409.45 294.508C404.356 302.163 406.384 312.56 414.036 317.657C416.894 319.556 420.11 320.468 423.293 320.468C428.643 320.468 433.885 317.89 437.079 313.089C437.617 312.314 449.459 295.732 473.095 291.449C487.757 310.24 485.632 330.336 485.493 331.518C484.284 340.569 490.604 348.921 499.661 350.2C500.454 350.313 501.24 350.369 502.017 350.369C510.176 350.369 517.303 344.363 518.476 336.052C518.607 335.153 520.132 323.392 516.621 307.703C592.645 349.169 644.337 429.845 644.337 522.368C644.337 657.098 534.728 766.709 399.998 766.709C265.272 766.704 155.661 657.095 155.661 522.365Z" fill="#3F2D20"/>
<path d="M535.571 160.064C530.442 138.391 518.919 104.843 493.884 79.8084C465.21 51.1323 429.349 38.7322 410.257 34.77C414.224 53.8682 426.626 89.7117 455.291 118.375C480.331 143.418 513.885 154.942 535.571 160.064Z" fill="#84BD93"/>
</g>
</g>
<defs>
<clipPath id="clip0_2602_2">
<rect width="800" height="800" fill="white"/>
</clipPath>
<clipPath id="clip1_2602_2">
<rect width="800" height="800" fill="white"/>
</clipPath>
</defs>
</svg>
