<svg width="800" height="800" viewBox="0 0 800 800" fill="none" xmlns="http://www.w3.org/2000/svg">
<g clip-path="url(#clip0_2602_2)">
<rect width="800" height="800" fill="white"/>
<g clip-path="url(#clip1_2602_2)">
<path d="M460.363 295.274C462.043 294.557 463.823 293.9 465.686 293.309C463.82 293.902 462.045 294.557 460.363 295.274Z" fill="#EF8829"/>
<path d="M446.112 303.847C447.139 303.015 448.27 302.169 449.472 301.324C448.266 302.169 447.141 303.013 446.112 303.847Z" fill="#EF8829"/>
<path d="M466.848 292.965C468.84 292.379 470.901 291.845 473.097 291.447C470.899 291.848 468.84 292.379 466.848 292.965Z" fill="#EF8829"/>
<path d="M442.92 306.627C443.701 305.897 444.576 305.129 445.514 304.345C444.573 305.129 443.701 305.895 442.92 306.627Z" fill="#EF8829"/>
<path d="M473.095 291.449C475.51 294.951 477.247 297.643 478.584 299.923C477.079 297.111 475.295 294.269 473.095 291.449Z" fill="#EF8829"/>
<path d="M541.616 323.454C543.095 324.51 544.567 325.579 546.021 326.668C544.567 325.579 543.097 324.51 541.616 323.454Z" fill="#EF8829"/>
<path d="M454.873 297.948C456.276 297.171 457.786 296.43 459.36 295.724C457.784 296.432 456.279 297.171 454.873 297.948Z" fill="#EF8829"/>
<path d="M578.323 355.59C579.815 357.186 581.261 358.826 582.71 360.462C581.258 358.824 579.817 357.186 578.323 355.59Z" fill="#EF8829"/>
<path d="M450.347 300.728C451.633 299.861 452.987 298.995 454.464 298.165C452.985 298.995 451.633 299.858 450.347 300.728Z" fill="#EF8829"/>
<path d="M442.608 306.913C441.751 307.725 441.019 308.473 440.361 309.175C441.014 308.478 441.758 307.721 442.608 306.913Z" fill="#EF8829"/>
<path d="M407.092 300.131C407.256 299.402 407.466 298.683 407.73 297.972C407.466 298.683 407.254 299.4 407.092 300.131Z" fill="#EF8829"/>
<path d="M157.043 548.221C156.739 545.359 156.538 542.468 156.336 539.578C156.54 542.468 156.739 545.359 157.043 548.221Z" fill="#EF8829"/>
<path d="M201.55 664.646C199.852 662.286 198.172 659.915 196.558 657.496C198.172 659.918 199.854 662.286 201.55 664.646Z" fill="#EF8829"/>
<path d="M236.598 703.847C233.685 701.222 230.837 698.53 228.054 695.77C230.837 698.53 233.685 701.224 236.598 703.847Z" fill="#EF8829"/>
<path d="M209.815 675.521C207.681 672.878 205.585 670.204 203.562 667.473C205.585 670.206 207.681 672.878 209.815 675.521Z" fill="#EF8829"/>
<path d="M187.753 643.177C186.491 640.97 185.245 638.752 184.052 636.501C185.245 638.752 186.491 640.968 187.753 643.177Z" fill="#EF8829"/>
<path d="M593.422 373.416C579.096 360.613 541.481 330.898 518.904 324.681C518.428 318.069 518.496 318.042 517.894 314.731C519.654 326.773 518.589 335.295 518.479 336.049C517.303 344.363 510.176 350.366 502.017 350.366C501.242 350.366 500.456 350.311 499.664 350.198C490.608 348.917 484.286 340.567 485.497 331.516C485.586 330.763 486.462 322.317 483.304 311.431C483.624 312.699 483.95 314.04 484.351 315.636C481.081 313.998 464.374 308.978 438.444 311.335C438.869 310.822 439.425 310.189 440.051 309.509C438.234 311.484 437.227 312.876 437.081 313.084C433.885 317.885 428.645 320.464 423.295 320.464C420.112 320.464 416.896 319.552 414.038 317.653C411.367 315.873 409.425 313.425 408.19 310.696C408.418 311.196 408.639 311.701 408.918 312.179C356.524 316.836 308.83 338.084 271.156 370.642C270.385 371.182 269.653 371.773 268.982 372.44C272.088 369.354 276.371 367.579 280.745 367.579C285.139 367.579 289.424 369.354 292.529 372.44C295.617 375.545 297.412 379.83 297.412 384.204C297.412 388.598 295.615 392.884 292.529 395.989C289.422 399.075 285.139 400.85 280.745 400.85C276.371 400.85 272.088 399.075 268.982 395.989C265.874 392.881 264.099 388.598 264.099 384.204C264.099 379.833 265.874 375.547 268.982 372.44C268.785 372.637 268.61 372.851 268.424 373.057C218.124 417.843 186.385 483.049 186.385 555.535C186.385 611.366 205.222 662.873 236.855 704.066C280.147 742.978 337.349 766.702 400 766.702C534.73 766.702 644.339 657.091 644.339 522.361C644.337 466.317 625.278 414.687 593.422 373.416ZM204.476 535.587C201.39 532.479 199.615 528.196 199.615 523.822C199.615 519.428 201.39 515.145 204.476 512.037C207.584 508.951 211.867 507.154 216.238 507.154C220.634 507.154 224.918 508.954 228.025 512.037C231.131 515.145 232.908 519.428 232.908 523.822C232.908 528.196 231.131 532.479 228.025 535.587C224.918 538.672 220.634 540.468 216.238 540.468C211.869 540.468 207.586 538.672 204.476 535.587ZM247.073 616.759C243.985 619.866 239.682 621.642 235.308 621.642C230.936 621.642 226.631 619.866 223.545 616.759C220.437 613.675 218.662 609.368 218.662 604.994C218.662 600.6 220.44 596.315 223.545 593.231C226.631 590.123 230.936 588.348 235.308 588.348C239.682 588.348 243.987 590.123 247.073 593.231C250.178 596.315 251.954 600.6 251.954 604.994C251.954 609.365 250.178 613.673 247.073 616.759ZM247.073 454.036C243.985 457.12 239.704 458.897 235.308 458.897C230.914 458.897 226.631 457.122 223.545 454.036C220.437 450.929 218.662 446.645 218.662 442.249C218.662 437.878 220.44 433.595 223.545 430.487C226.631 427.381 230.936 425.604 235.308 425.604C239.682 425.604 243.965 427.381 247.073 430.487C250.178 433.595 251.954 437.878 251.954 442.249C251.954 446.645 250.178 450.929 247.073 454.036ZM292.529 672.293C289.422 675.377 285.139 677.154 280.745 677.154C276.371 677.154 272.088 675.379 268.982 672.293C265.874 669.186 264.099 664.88 264.099 660.506C264.099 656.135 265.874 651.83 268.982 648.744C272.088 645.636 276.371 643.861 280.745 643.861C285.139 643.861 289.424 645.638 292.529 648.744C295.617 651.83 297.39 656.135 297.39 660.506C297.393 664.88 295.617 669.186 292.529 672.293ZM307.181 577.205C304.095 580.311 299.812 582.086 295.416 582.086C291.044 582.086 286.739 580.311 283.653 577.205C280.545 574.12 278.77 569.814 278.77 565.44C278.77 561.047 280.548 556.763 283.653 553.656C286.741 550.572 291.044 548.795 295.416 548.795C299.79 548.795 304.095 550.572 307.181 553.656C310.289 556.763 312.062 561.047 312.062 565.44C312.062 569.814 310.286 574.097 307.181 577.205ZM307.181 491.06C304.095 494.17 299.812 495.943 295.416 495.943C291.044 495.943 286.739 494.167 283.653 491.06C280.545 487.976 278.77 483.669 278.77 479.297C278.77 474.903 280.548 470.618 283.653 467.512C286.741 464.424 291.044 462.649 295.416 462.649C299.79 462.649 304.095 464.424 307.181 467.512C310.289 470.618 312.062 474.903 312.062 479.297C312.062 483.669 310.286 487.976 307.181 491.06Z" fill="#EF8829"/>
<path d="M406.902 306.421C406.8 305.788 406.738 305.149 406.711 304.504C406.74 305.149 406.8 305.786 406.902 306.421Z" fill="#EF8829"/>
<path d="M161.049 573.338C160.535 570.923 160.09 568.484 159.65 566.042C160.093 568.484 160.535 570.923 161.049 573.338Z" fill="#EF8829"/>
<path d="M164.004 585.59C163.378 583.253 162.809 580.891 162.251 578.524C162.809 580.891 163.378 583.25 164.004 585.59Z" fill="#EF8829"/>
<path d="M158.727 560.883C158.32 558.328 158.001 555.747 157.673 553.168C157.999 555.747 158.32 558.328 158.727 560.883Z" fill="#EF8829"/>
<path d="M211.043 677.086C216.303 683.498 221.879 689.639 227.753 695.485C221.879 689.639 216.305 683.496 211.043 677.086Z" fill="#EF8829"/>
<path d="M181.82 632.156C180.709 629.958 179.62 627.744 178.573 625.509C179.62 627.747 180.709 629.956 181.82 632.156Z" fill="#EF8829"/>
<path d="M156.015 535.383C155.787 531.071 155.661 526.733 155.661 522.365C155.661 526.733 155.79 531.071 156.015 535.383Z" fill="#EF8829"/>
<path d="M171.729 609.372C170.872 607.132 170.053 604.872 169.261 602.599C170.053 604.872 170.872 607.13 171.729 609.372Z" fill="#EF8829"/>
<path d="M295.416 462.649C291.044 462.649 286.739 464.425 283.654 467.512C280.548 470.618 278.771 474.903 278.771 479.297C278.771 483.669 280.548 487.976 283.654 491.062C286.741 494.17 291.044 495.945 295.416 495.945C299.812 495.945 304.095 494.17 307.181 491.062C310.287 487.979 312.062 483.671 312.062 479.297C312.062 474.903 310.287 470.618 307.181 467.512C304.095 464.425 299.79 462.649 295.416 462.649Z" fill="#EF8829"/>
<path d="M295.416 548.792C291.044 548.792 286.739 550.57 283.654 553.653C280.548 556.761 278.771 561.044 278.771 565.438C278.771 569.812 280.548 574.117 283.654 577.205C286.741 580.311 291.044 582.086 295.416 582.086C299.812 582.086 304.095 580.311 307.181 577.205C310.287 574.097 312.062 569.814 312.062 565.438C312.062 561.044 310.287 556.761 307.181 553.653C304.095 550.57 299.79 548.792 295.416 548.792Z" fill="#EF8829"/>
<path d="M280.745 643.859C276.371 643.859 272.088 645.636 268.982 648.742C265.874 651.828 264.099 656.133 264.099 660.505C264.099 664.878 265.874 669.184 268.982 672.291C272.088 675.375 276.371 677.152 280.745 677.152C285.139 677.152 289.424 675.377 292.53 672.291C295.617 669.184 297.393 664.878 297.393 660.505C297.393 656.133 295.617 651.828 292.53 648.742C289.424 645.639 285.139 643.859 280.745 643.859Z" fill="#EF8829"/>
<path d="M280.745 400.854C285.139 400.854 289.424 399.079 292.53 395.993C295.617 392.886 297.413 388.603 297.413 384.209C297.413 379.837 295.615 375.552 292.53 372.446C289.424 369.358 285.139 367.583 280.745 367.583C276.371 367.583 272.088 369.358 268.982 372.446C265.874 375.552 264.099 379.837 264.099 384.209C264.099 388.603 265.874 392.888 268.982 395.993C272.088 399.079 276.371 400.854 280.745 400.854Z" fill="#EF8829"/>
<path d="M235.308 425.602C230.936 425.602 226.631 427.379 223.543 430.485C220.438 433.592 218.66 437.876 218.66 442.247C218.66 446.643 220.438 450.926 223.543 454.034C226.631 457.118 230.914 458.893 235.308 458.893C239.704 458.893 243.987 457.118 247.073 454.034C250.178 450.926 251.954 446.643 251.954 442.247C251.954 437.876 250.178 433.592 247.073 430.485C243.965 427.379 239.682 425.602 235.308 425.602Z" fill="#EF8829"/>
<path d="M232.91 523.822C232.91 519.428 231.133 515.145 228.027 512.037C224.92 508.954 220.636 507.154 216.24 507.154C211.869 507.154 207.586 508.954 204.478 512.037C201.392 515.145 199.619 519.428 199.619 523.822C199.619 528.196 201.394 532.479 204.478 535.587C207.586 538.673 211.869 540.468 216.24 540.468C220.636 540.468 224.92 538.67 228.027 535.587C231.135 532.479 232.91 528.196 232.91 523.822Z" fill="#EF8829"/>
<path d="M235.308 588.348C230.936 588.348 226.631 590.123 223.543 593.231C220.438 596.315 218.66 600.6 218.66 604.996C218.66 609.368 220.438 613.675 223.543 616.759C226.631 619.866 230.934 621.642 235.308 621.642C239.682 621.642 243.987 619.866 247.073 616.759C250.178 613.675 251.954 609.368 251.954 604.996C251.954 600.602 250.178 596.317 247.073 593.231C243.987 590.121 239.682 588.348 235.308 588.348Z" fill="#EF8829"/>
<path d="M506.074 265.81C528.92 235.618 581.247 172.718 637.409 147.498C645.793 143.732 650.96 135.295 648.14 126.545C645.317 117.792 635.932 112.989 627.186 115.813C605.992 122.651 585.754 134.673 567.2 149.018C560.723 123.176 546.812 85.6543 517.427 56.2676C490.951 29.7918 460.571 15.6717 439.744 8.48666C409.689 -1.88144 390.061 -2.75357 381.4 5.89685C381.4 5.89685 379.206 7.77834 377.69 11.5546C373.52 21.9338 375.441 39.5157 383.968 64.2363C391.15 85.0632 405.27 115.448 431.746 141.922C460.212 170.388 496.315 184.331 522.036 191.066C498.997 216.148 481.601 240.687 472.502 254.357C449.381 248.095 425.079 244.733 399.998 244.733C246.911 244.733 122.368 369.276 122.368 522.365C122.368 675.454 246.913 800 399.998 800C553.089 800 677.63 675.454 677.63 522.365C677.633 406.827 606.685 307.561 506.074 265.81ZM493.884 79.8084C518.919 104.843 530.443 138.393 535.571 160.064C513.885 154.939 480.331 143.416 455.292 118.374C426.626 89.7116 414.224 53.8682 410.258 34.77C429.349 38.7321 465.21 51.1345 493.884 79.8084ZM155.661 522.365C155.661 387.638 265.272 278.026 399.998 278.026C408.017 278.026 415.948 278.427 423.778 279.186C414.609 286.927 409.87 293.88 409.45 294.508C404.356 302.163 406.384 312.56 414.036 317.657C416.894 319.556 420.11 320.468 423.293 320.468C428.643 320.468 433.885 317.89 437.079 313.089C437.617 312.314 449.459 295.732 473.095 291.449C487.757 310.24 485.632 330.336 485.493 331.518C484.284 340.569 490.604 348.921 499.661 350.2C500.454 350.313 501.24 350.369 502.017 350.369C510.176 350.369 517.303 344.363 518.476 336.052C518.607 335.153 520.132 323.392 516.621 307.703C592.645 349.169 644.337 429.845 644.337 522.368C644.337 657.098 534.728 766.709 399.998 766.709C265.272 766.704 155.661 657.095 155.661 522.365Z" fill="#3F2D20"/>
<path d="M535.571 160.064C530.442 138.391 518.919 104.843 493.884 79.8084C465.21 51.1323 429.349 38.7322 410.257 34.77C414.224 53.8682 426.626 89.7117 455.291 118.375C480.331 143.418 513.885 154.942 535.571 160.064Z" fill="#84BD93"/>
</g>
</g>
<defs>
<clipPath id="clip0_2602_2">
<rect width="800" height="800" fill="white"/>
</clipPath>
<clipPath id="clip1_2602_2">
<rect width="800" height="800" fill="white"/>
</clipPath>
</defs>
</svg>
